<svg xmlns="http://www.w3.org/2000/svg" xmlns:xlink="http://www.w3.org/1999/xlink" width="600" zoomAndPan="magnify" viewBox="0 0 450 149.999998" height="200" preserveAspectRatio="xMidYMid meet" version="1.2"><defs><clipPath id="88a9cba762"><path d="M 353.6875 57.054688 L 439 57.054688 L 439 99.890625 L 353.6875 99.890625 Z M 353.6875 57.054688 "/></clipPath><clipPath id="49cb5a0955"><path d="M 422.589844 32.464844 L 442.074219 32.464844 L 442.074219 50.601562 L 422.589844 50.601562 Z M 422.589844 32.464844 "/></clipPath><clipPath id="585956f7a0"><path d="M 442.074219 41.535156 C 442.074219 36.523438 437.722656 32.464844 432.351562 32.464844 C 426.984375 32.464844 422.628906 36.523438 422.628906 41.535156 C 422.628906 46.542969 426.984375 50.601562 432.351562 50.601562 C 437.722656 50.601562 442.074219 46.542969 442.074219 41.535156 Z M 442.074219 41.535156 "/></clipPath></defs><g id="6b23d9bb9f"><g style="fill:#cb3689;fill-opacity:1;"><g transform="translate(2.250004, 102.54762)"><path style="stroke:none" d="M 31.84375 16.75 C 27.300781 16.75 22.957031 16.25 18.8125 15.25 C 14.675781 14.25 10.851562 12.820312 7.34375 10.96875 L 12.71875 -0.828125 C 15.613281 0.753906 18.523438 1.992188 21.453125 2.890625 C 24.378906 3.785156 27.707031 4.234375 31.4375 4.234375 C 36.8125 4.234375 40.789062 2.957031 43.375 0.40625 C 45.957031 -2.132812 47.25 -5.890625 47.25 -10.859375 L 47.25 -13.546875 C 44.90625 -10.722656 42.351562 -8.515625 39.59375 -6.921875 C 36.84375 -5.335938 33.363281 -4.546875 29.15625 -4.546875 C 25.914062 -4.546875 22.8125 -5.113281 19.84375 -6.25 C 16.882812 -7.394531 14.265625 -9.066406 11.984375 -11.265625 C 9.710938 -13.472656 7.90625 -16.179688 6.5625 -19.390625 C 5.21875 -22.597656 4.546875 -26.269531 4.546875 -30.40625 L 4.546875 -30.609375 C 4.546875 -34.742188 5.234375 -38.410156 6.609375 -41.609375 C 7.992188 -44.816406 9.820312 -47.523438 12.09375 -49.734375 C 14.375 -51.941406 16.992188 -53.613281 19.953125 -54.75 C 22.921875 -55.882812 25.988281 -56.453125 29.15625 -56.453125 C 33.4375 -56.453125 36.953125 -55.660156 39.703125 -54.078125 C 42.460938 -52.492188 44.910156 -50.53125 47.046875 -48.1875 L 47.046875 -55.421875 L 62.765625 -55.421875 L 62.765625 -12.515625 C 62.765625 -2.648438 60.421875 4.625 55.734375 9.3125 C 53.117188 11.925781 49.828125 13.816406 45.859375 14.984375 C 41.898438 16.160156 37.226562 16.75 31.84375 16.75 Z M 33.703125 -17.578125 C 35.640625 -17.578125 37.429688 -17.882812 39.078125 -18.5 C 40.734375 -19.125 42.164062 -20.003906 43.375 -21.140625 C 44.582031 -22.285156 45.53125 -23.648438 46.21875 -25.234375 C 46.90625 -26.816406 47.25 -28.539062 47.25 -30.40625 L 47.25 -30.609375 C 47.25 -32.472656 46.90625 -34.195312 46.21875 -35.78125 C 45.53125 -37.363281 44.582031 -38.722656 43.375 -39.859375 C 42.164062 -40.992188 40.734375 -41.875 39.078125 -42.5 C 37.429688 -43.125 35.640625 -43.4375 33.703125 -43.4375 C 31.773438 -43.4375 30 -43.125 28.375 -42.5 C 26.757812 -41.875 25.347656 -40.992188 24.140625 -39.859375 C 22.929688 -38.722656 21.984375 -37.363281 21.296875 -35.78125 C 20.609375 -34.195312 20.265625 -32.472656 20.265625 -30.609375 L 20.265625 -30.40625 C 20.265625 -26.539062 21.539062 -23.4375 24.09375 -21.09375 C 26.644531 -18.75 29.847656 -17.578125 33.703125 -17.578125 Z M 33.703125 -17.578125 "/></g></g><g style="fill:#cb3689;fill-opacity:1;"><g transform="translate(68.007159, 102.54762)"><path style="stroke:none" d="M 7.03125 -55.421875 L 22.75 -55.421875 L 22.75 -44.265625 C 24.332031 -48.046875 26.503906 -51.070312 29.265625 -53.34375 C 32.023438 -55.625 35.75 -56.660156 40.4375 -56.453125 L 40.4375 -40.015625 L 39.609375 -40.015625 C 34.367188 -40.015625 30.25 -38.425781 27.25 -35.25 C 24.25 -32.082031 22.75 -27.15625 22.75 -20.46875 L 22.75 0 L 7.03125 0 Z M 7.03125 -55.421875 "/></g></g><g style="fill:#cb3689;fill-opacity:1;"><g transform="translate(107.192187, 102.54762)"><path style="stroke:none" d="M 22.75 1.03125 C 20.125 1.03125 17.65625 0.671875 15.34375 -0.046875 C 13.039062 -0.773438 11.023438 -1.863281 9.296875 -3.3125 C 7.578125 -4.757812 6.21875 -6.53125 5.21875 -8.625 C 4.21875 -10.726562 3.71875 -13.160156 3.71875 -15.921875 L 3.71875 -16.125 C 3.71875 -19.164062 4.269531 -21.785156 5.375 -23.984375 C 6.476562 -26.191406 8.007812 -28.019531 9.96875 -29.46875 C 11.9375 -30.914062 14.28125 -32 17 -32.71875 C 19.726562 -33.445312 22.75 -33.8125 26.0625 -33.8125 C 28.882812 -33.8125 31.347656 -33.601562 33.453125 -33.1875 C 35.554688 -32.78125 37.609375 -32.226562 39.609375 -31.53125 L 39.609375 -32.46875 C 39.609375 -35.78125 38.609375 -38.296875 36.609375 -40.015625 C 34.609375 -41.742188 31.644531 -42.609375 27.71875 -42.609375 C 24.675781 -42.609375 22 -42.347656 19.6875 -41.828125 C 17.382812 -41.304688 14.957031 -40.566406 12.40625 -39.609375 L 8.484375 -51.59375 C 11.515625 -52.90625 14.679688 -53.972656 17.984375 -54.796875 C 21.296875 -55.628906 25.296875 -56.046875 29.984375 -56.046875 C 34.328125 -56.046875 38.03125 -55.507812 41.09375 -54.4375 C 44.164062 -53.375 46.703125 -51.84375 48.703125 -49.84375 C 50.773438 -47.769531 52.289062 -45.234375 53.25 -42.234375 C 54.21875 -39.242188 54.703125 -35.882812 54.703125 -32.15625 L 54.703125 0 L 39.5 0 L 39.5 -6 C 37.570312 -3.863281 35.265625 -2.15625 32.578125 -0.875 C 29.890625 0.394531 26.613281 1.03125 22.75 1.03125 Z M 27.5 -9.828125 C 31.226562 -9.828125 34.210938 -10.722656 36.453125 -12.515625 C 38.691406 -14.304688 39.8125 -16.648438 39.8125 -19.546875 L 39.8125 -22.328125 C 38.4375 -22.953125 36.898438 -23.453125 35.203125 -23.828125 C 33.515625 -24.210938 31.707031 -24.40625 29.78125 -24.40625 C 26.40625 -24.40625 23.75 -23.75 21.8125 -22.4375 C 19.882812 -21.125 18.921875 -19.226562 18.921875 -16.75 L 18.921875 -16.546875 C 18.921875 -14.410156 19.710938 -12.753906 21.296875 -11.578125 C 22.890625 -10.410156 24.957031 -9.828125 27.5 -9.828125 Z M 27.5 -9.828125 "/></g></g><g style="fill:#cb3689;fill-opacity:1;"><g transform="translate(164.367679, 102.54762)"><path style="stroke:none" d="M 5.171875 -11.0625 L 33.8125 -42.703125 L 6.09375 -42.703125 L 6.09375 -55.421875 L 53.359375 -55.421875 L 53.359375 -44.359375 L 24.609375 -12.71875 L 53.359375 -12.71875 L 53.359375 0 L 5.171875 0 Z M 5.171875 -11.0625 "/></g></g><g style="fill:#cb3689;fill-opacity:1;"><g transform="translate(218.544768, 102.54762)"><path style="stroke:none" d="M 33.296875 1.234375 C 29.160156 1.234375 25.316406 0.546875 21.765625 -0.828125 C 18.210938 -2.203125 15.144531 -4.164062 12.5625 -6.71875 C 9.976562 -9.269531 7.960938 -12.285156 6.515625 -15.765625 C 5.066406 -19.242188 4.34375 -23.125 4.34375 -27.40625 L 4.34375 -27.609375 C 4.34375 -31.535156 5.015625 -35.253906 6.359375 -38.765625 C 7.703125 -42.285156 9.578125 -45.351562 11.984375 -47.96875 C 14.398438 -50.59375 17.28125 -52.660156 20.625 -54.171875 C 23.96875 -55.691406 27.675781 -56.453125 31.75 -56.453125 C 36.363281 -56.453125 40.359375 -55.625 43.734375 -53.96875 C 47.117188 -52.320312 49.929688 -50.101562 52.171875 -47.3125 C 54.410156 -44.519531 56.0625 -41.3125 57.125 -37.6875 C 58.195312 -34.070312 58.734375 -30.300781 58.734375 -26.375 C 58.734375 -25.75 58.710938 -25.09375 58.671875 -24.40625 C 58.640625 -23.71875 58.59375 -22.992188 58.53125 -22.234375 L 19.953125 -22.234375 C 20.710938 -18.648438 22.28125 -15.941406 24.65625 -14.109375 C 27.039062 -12.285156 29.988281 -11.375 33.5 -11.375 C 36.125 -11.375 38.46875 -11.820312 40.53125 -12.71875 C 42.601562 -13.613281 44.742188 -15.0625 46.953125 -17.0625 L 55.9375 -9.09375 C 53.320312 -5.851562 50.148438 -3.320312 46.421875 -1.5 C 42.703125 0.320312 38.328125 1.234375 33.296875 1.234375 Z M 43.4375 -32.0625 C 42.945312 -35.570312 41.703125 -38.410156 39.703125 -40.578125 C 37.703125 -42.753906 35.050781 -43.84375 31.75 -43.84375 C 28.4375 -43.84375 25.765625 -42.773438 23.734375 -40.640625 C 21.703125 -38.503906 20.375 -35.644531 19.75 -32.0625 Z M 43.4375 -32.0625 "/></g></g><g style="fill:#cb3689;fill-opacity:1;"><g transform="translate(277.891527, 102.54762)"><path style="stroke:none" d="M 29.78125 1.03125 C 26.539062 1.03125 23.40625 0.410156 20.375 -0.828125 C 17.34375 -2.066406 14.65625 -3.910156 12.3125 -6.359375 C 9.96875 -8.804688 8.085938 -11.804688 6.671875 -15.359375 C 5.253906 -18.910156 4.546875 -22.992188 4.546875 -27.609375 L 4.546875 -27.8125 C 4.546875 -32.4375 5.253906 -36.519531 6.671875 -40.0625 C 8.085938 -43.613281 9.945312 -46.613281 12.25 -49.0625 C 14.5625 -51.507812 17.234375 -53.351562 20.265625 -54.59375 C 23.296875 -55.832031 26.46875 -56.453125 29.78125 -56.453125 C 33.988281 -56.453125 37.453125 -55.625 40.171875 -53.96875 C 42.898438 -52.320312 45.191406 -50.394531 47.046875 -48.1875 L 47.046875 -75.484375 L 62.765625 -75.484375 L 62.765625 0 L 47.046875 0 L 47.046875 -7.96875 C 45.117188 -5.34375 42.789062 -3.1875 40.0625 -1.5 C 37.34375 0.1875 33.914062 1.03125 29.78125 1.03125 Z M 33.8125 -12.3125 C 35.675781 -12.3125 37.414062 -12.671875 39.03125 -13.390625 C 40.65625 -14.117188 42.066406 -15.15625 43.265625 -16.5 C 44.472656 -17.84375 45.4375 -19.460938 46.15625 -21.359375 C 46.882812 -23.253906 47.25 -25.335938 47.25 -27.609375 L 47.25 -27.8125 C 47.25 -30.09375 46.882812 -32.179688 46.15625 -34.078125 C 45.4375 -35.972656 44.472656 -37.59375 43.265625 -38.9375 C 42.066406 -40.28125 40.65625 -41.3125 39.03125 -42.03125 C 37.414062 -42.757812 35.675781 -43.125 33.8125 -43.125 C 31.945312 -43.125 30.203125 -42.757812 28.578125 -42.03125 C 26.960938 -41.3125 25.535156 -40.28125 24.296875 -38.9375 C 23.054688 -37.59375 22.070312 -35.988281 21.34375 -34.125 C 20.625 -32.257812 20.265625 -30.15625 20.265625 -27.8125 L 20.265625 -27.609375 C 20.265625 -25.335938 20.625 -23.253906 21.34375 -21.359375 C 22.070312 -19.460938 23.054688 -17.84375 24.296875 -16.5 C 25.535156 -15.15625 26.960938 -14.117188 28.578125 -13.390625 C 30.203125 -12.671875 31.945312 -12.3125 33.8125 -12.3125 Z M 33.8125 -12.3125 "/></g></g><g clip-rule="nonzero" clip-path="url(#88a9cba762)"><path style=" stroke:none;fill-rule:nonzero;fill:#cb3689;fill-opacity:1;" d="M 426.210938 57.054688 C 426.210938 73.539062 412.820312 86.925781 396.335938 86.925781 C 379.851562 86.925781 366.464844 73.539062 366.464844 57.054688 L 353.722656 57.054688 C 353.722656 80.59375 372.796875 99.667969 396.335938 99.667969 C 419.875 99.667969 438.878906 80.59375 438.878906 57.054688 Z M 426.210938 57.054688 "/></g><g style="fill:#ff914d;fill-opacity:1;"><g transform="translate(430.681985, 102.953321)"><path style="stroke:none" d="M -76.171875 -54.875 L -76.296875 -66.40625 L -53.96875 -69.84375 L -57.1875 -62.671875 Z M -76.171875 -54.875 "/></g></g><g clip-rule="nonzero" clip-path="url(#49cb5a0955)"><g clip-rule="nonzero" clip-path="url(#585956f7a0)"><path style=" stroke:none;fill-rule:nonzero;fill:#ff914d;fill-opacity:1;" d="M 442.074219 32.464844 L 442.074219 50.601562 L 422.664062 50.601562 L 422.664062 32.464844 Z M 442.074219 32.464844 "/></g></g><g style="fill:#cb3689;fill-opacity:1;"><g transform="translate(158.148339, 133.476337)"><path style="stroke:none" d="M 5.96875 3.078125 C 5.144531 3.078125 4.359375 2.960938 3.609375 2.734375 C 2.867188 2.503906 2.171875 2.160156 1.515625 1.703125 L 2.171875 0.5625 C 2.742188 0.96875 3.335938 1.273438 3.953125 1.484375 C 4.578125 1.703125 5.242188 1.8125 5.953125 1.8125 C 7.035156 1.8125 7.898438 1.519531 8.546875 0.9375 C 9.191406 0.351562 9.515625 -0.515625 9.515625 -1.671875 L 9.515625 -2.828125 C 9.085938 -2.253906 8.5625 -1.765625 7.9375 -1.359375 C 7.320312 -0.960938 6.566406 -0.765625 5.671875 -0.765625 C 5.078125 -0.765625 4.503906 -0.867188 3.953125 -1.078125 C 3.398438 -1.296875 2.910156 -1.601562 2.484375 -2 C 2.054688 -2.394531 1.710938 -2.875 1.453125 -3.4375 C 1.191406 -4 1.0625 -4.632812 1.0625 -5.34375 L 1.0625 -5.375 C 1.0625 -6.101562 1.191406 -6.75 1.453125 -7.3125 C 1.710938 -7.882812 2.054688 -8.367188 2.484375 -8.765625 C 2.910156 -9.160156 3.398438 -9.460938 3.953125 -9.671875 C 4.515625 -9.890625 5.085938 -10 5.671875 -10 C 6.117188 -10 6.535156 -9.945312 6.921875 -9.84375 C 7.304688 -9.738281 7.65625 -9.597656 7.96875 -9.421875 C 8.28125 -9.242188 8.5625 -9.035156 8.8125 -8.796875 C 9.0625 -8.554688 9.289062 -8.300781 9.5 -8.03125 L 9.5 -9.796875 L 10.953125 -9.796875 L 10.953125 -1.703125 C 10.953125 -0.941406 10.84375 -0.273438 10.625 0.296875 C 10.414062 0.867188 10.109375 1.359375 9.703125 1.765625 C 9.265625 2.203125 8.726562 2.53125 8.09375 2.75 C 7.457031 2.96875 6.75 3.078125 5.96875 3.078125 Z M 5.953125 -2.046875 C 6.421875 -2.046875 6.867188 -2.125 7.296875 -2.28125 C 7.722656 -2.4375 8.101562 -2.660156 8.4375 -2.953125 C 8.78125 -3.253906 9.050781 -3.609375 9.25 -4.015625 C 9.445312 -4.421875 9.546875 -4.867188 9.546875 -5.359375 L 9.546875 -5.40625 C 9.546875 -5.90625 9.445312 -6.359375 9.25 -6.765625 C 9.050781 -7.171875 8.78125 -7.519531 8.4375 -7.8125 C 8.101562 -8.101562 7.722656 -8.328125 7.296875 -8.484375 C 6.867188 -8.640625 6.421875 -8.71875 5.953125 -8.71875 C 5.484375 -8.71875 5.039062 -8.640625 4.625 -8.484375 C 4.21875 -8.328125 3.859375 -8.101562 3.546875 -7.8125 C 3.242188 -7.53125 3.003906 -7.1875 2.828125 -6.78125 C 2.648438 -6.375 2.5625 -5.921875 2.5625 -5.421875 L 2.5625 -5.375 C 2.5625 -4.882812 2.648438 -4.429688 2.828125 -4.015625 C 3.015625 -3.609375 3.257812 -3.257812 3.5625 -2.96875 C 3.875 -2.6875 4.234375 -2.460938 4.640625 -2.296875 C 5.054688 -2.128906 5.492188 -2.046875 5.953125 -2.046875 Z M 5.953125 -2.046875 "/></g></g><g style="fill:#cb3689;fill-opacity:1;"><g transform="translate(173.423309, 133.476337)"><path style="stroke:none" d="M 1.625 -9.796875 L 3.09375 -9.796875 L 3.09375 -7.234375 C 3.269531 -7.640625 3.488281 -8.015625 3.75 -8.359375 C 4.019531 -8.703125 4.320312 -8.992188 4.65625 -9.234375 C 5 -9.484375 5.375 -9.671875 5.78125 -9.796875 C 6.1875 -9.921875 6.625 -9.976562 7.09375 -9.96875 L 7.09375 -8.390625 L 6.96875 -8.390625 C 6.4375 -8.390625 5.929688 -8.296875 5.453125 -8.109375 C 4.984375 -7.921875 4.570312 -7.632812 4.21875 -7.25 C 3.875 -6.875 3.597656 -6.40625 3.390625 -5.84375 C 3.191406 -5.28125 3.09375 -4.632812 3.09375 -3.90625 L 3.09375 0 L 1.625 0 Z M 1.625 -9.796875 "/></g></g><g style="fill:#cb3689;fill-opacity:1;"><g transform="translate(183.789831, 133.476337)"><path style="stroke:none" d="M 5.90625 0.234375 C 5.238281 0.234375 4.609375 0.109375 4.015625 -0.140625 C 3.421875 -0.390625 2.898438 -0.738281 2.453125 -1.1875 C 2.015625 -1.632812 1.664062 -2.171875 1.40625 -2.796875 C 1.15625 -3.421875 1.03125 -4.113281 1.03125 -4.875 L 1.03125 -4.90625 C 1.03125 -5.613281 1.144531 -6.273438 1.375 -6.890625 C 1.601562 -7.515625 1.925781 -8.054688 2.34375 -8.515625 C 2.757812 -8.984375 3.253906 -9.347656 3.828125 -9.609375 C 4.410156 -9.867188 5.039062 -10 5.71875 -10 C 6.4375 -10 7.082031 -9.863281 7.65625 -9.59375 C 8.226562 -9.320312 8.707031 -8.953125 9.09375 -8.484375 C 9.488281 -8.023438 9.785156 -7.476562 9.984375 -6.84375 C 10.191406 -6.21875 10.296875 -5.546875 10.296875 -4.828125 C 10.296875 -4.734375 10.296875 -4.648438 10.296875 -4.578125 C 10.296875 -4.515625 10.285156 -4.441406 10.265625 -4.359375 L 2.5 -4.359375 C 2.550781 -3.828125 2.675781 -3.351562 2.875 -2.9375 C 3.082031 -2.53125 3.335938 -2.1875 3.640625 -1.90625 C 3.953125 -1.625 4.300781 -1.410156 4.6875 -1.265625 C 5.082031 -1.117188 5.503906 -1.046875 5.953125 -1.046875 C 6.628906 -1.046875 7.210938 -1.171875 7.703125 -1.421875 C 8.191406 -1.671875 8.640625 -2.003906 9.046875 -2.421875 L 9.953125 -1.609375 C 9.460938 -1.054688 8.898438 -0.609375 8.265625 -0.265625 C 7.628906 0.0664062 6.84375 0.234375 5.90625 0.234375 Z M 8.8125 -5.4375 C 8.769531 -5.882812 8.675781 -6.304688 8.53125 -6.703125 C 8.394531 -7.109375 8.195312 -7.460938 7.9375 -7.765625 C 7.675781 -8.066406 7.359375 -8.3125 6.984375 -8.5 C 6.609375 -8.6875 6.175781 -8.78125 5.6875 -8.78125 C 5.257812 -8.78125 4.859375 -8.691406 4.484375 -8.515625 C 4.117188 -8.347656 3.796875 -8.113281 3.515625 -7.8125 C 3.242188 -7.519531 3.019531 -7.171875 2.84375 -6.765625 C 2.664062 -6.359375 2.550781 -5.914062 2.5 -5.4375 Z M 8.8125 -5.4375 "/></g></g><g style="fill:#cb3689;fill-opacity:1;"><g transform="translate(197.700282, 133.476337)"><path style="stroke:none" d="M 4.546875 0.203125 C 4.085938 0.203125 3.640625 0.140625 3.203125 0.015625 C 2.773438 -0.109375 2.382812 -0.300781 2.03125 -0.5625 C 1.6875 -0.820312 1.410156 -1.140625 1.203125 -1.515625 C 0.992188 -1.890625 0.890625 -2.332031 0.890625 -2.84375 L 0.890625 -2.875 C 0.890625 -3.394531 0.988281 -3.847656 1.1875 -4.234375 C 1.394531 -4.628906 1.679688 -4.957031 2.046875 -5.21875 C 2.421875 -5.488281 2.863281 -5.691406 3.375 -5.828125 C 3.894531 -5.972656 4.460938 -6.046875 5.078125 -6.046875 C 5.710938 -6.046875 6.257812 -6.003906 6.71875 -5.921875 C 7.1875 -5.847656 7.644531 -5.75 8.09375 -5.625 L 8.09375 -5.96875 C 8.09375 -6.851562 7.835938 -7.519531 7.328125 -7.96875 C 6.816406 -8.414062 6.097656 -8.640625 5.171875 -8.640625 C 4.585938 -8.640625 4.054688 -8.570312 3.578125 -8.4375 C 3.109375 -8.3125 2.648438 -8.140625 2.203125 -7.921875 L 1.765625 -9.109375 C 2.304688 -9.367188 2.851562 -9.570312 3.40625 -9.71875 C 3.96875 -9.863281 4.609375 -9.9375 5.328125 -9.9375 C 6.710938 -9.9375 7.765625 -9.570312 8.484375 -8.84375 C 9.160156 -8.175781 9.5 -7.222656 9.5 -5.984375 L 9.5 0 L 8.09375 0 L 8.09375 -1.484375 C 7.75 -1.035156 7.289062 -0.640625 6.71875 -0.296875 C 6.144531 0.0351562 5.421875 0.203125 4.546875 0.203125 Z M 4.828125 -0.953125 C 5.285156 -0.953125 5.710938 -1.015625 6.109375 -1.140625 C 6.503906 -1.273438 6.847656 -1.457031 7.140625 -1.6875 C 7.441406 -1.925781 7.675781 -2.207031 7.84375 -2.53125 C 8.019531 -2.851562 8.109375 -3.207031 8.109375 -3.59375 L 8.109375 -4.546875 C 7.742188 -4.648438 7.320312 -4.742188 6.84375 -4.828125 C 6.375 -4.921875 5.835938 -4.96875 5.234375 -4.96875 C 4.304688 -4.96875 3.597656 -4.78125 3.109375 -4.40625 C 2.617188 -4.039062 2.375 -3.550781 2.375 -2.9375 L 2.375 -2.90625 C 2.375 -2.59375 2.4375 -2.3125 2.5625 -2.0625 C 2.695312 -1.820312 2.878906 -1.617188 3.109375 -1.453125 C 3.335938 -1.296875 3.597656 -1.171875 3.890625 -1.078125 C 4.191406 -0.992188 4.503906 -0.953125 4.828125 -0.953125 Z M 4.828125 -0.953125 "/></g></g><g style="fill:#cb3689;fill-opacity:1;"><g transform="translate(211.364357, 133.476337)"><path style="stroke:none" d="M 4.90625 0.171875 C 4.519531 0.171875 4.15625 0.117188 3.8125 0.015625 C 3.46875 -0.078125 3.171875 -0.234375 2.921875 -0.453125 C 2.679688 -0.679688 2.488281 -0.972656 2.34375 -1.328125 C 2.207031 -1.679688 2.140625 -2.101562 2.140625 -2.59375 L 2.140625 -8.515625 L 0.78125 -8.515625 L 0.78125 -9.796875 L 2.140625 -9.796875 L 2.140625 -12.75 L 3.59375 -12.75 L 3.59375 -9.796875 L 6.703125 -9.796875 L 6.703125 -8.515625 L 3.59375 -8.515625 L 3.59375 -2.78125 C 3.59375 -2.175781 3.742188 -1.753906 4.046875 -1.515625 C 4.359375 -1.273438 4.757812 -1.15625 5.25 -1.15625 C 5.5 -1.15625 5.734375 -1.179688 5.953125 -1.234375 C 6.179688 -1.285156 6.421875 -1.375 6.671875 -1.5 L 6.671875 -0.25 C 6.421875 -0.101562 6.148438 0 5.859375 0.0625 C 5.578125 0.132812 5.257812 0.171875 4.90625 0.171875 Z M 4.90625 0.171875 "/></g></g><g style="fill:#cb3689;fill-opacity:1;"><g transform="translate(221.711938, 133.476337)"><path style="stroke:none" d=""/></g></g><g style="fill:#cb3689;fill-opacity:1;"><g transform="translate(230.088553, 133.476337)"><path style="stroke:none" d="M 1.0625 -0.921875 L 7.5625 -8.5625 L 1.28125 -8.5625 L 1.28125 -9.796875 L 9.546875 -9.796875 L 9.546875 -8.875 L 3.03125 -1.234375 L 9.546875 -1.234375 L 9.546875 0 L 1.0625 0 Z M 1.0625 -0.921875 "/></g></g><g style="fill:#cb3689;fill-opacity:1;"><g transform="translate(243.316745, 133.476337)"><path style="stroke:none" d="M 1.671875 -13.546875 L 3.328125 -13.546875 L 3.328125 -11.9375 L 1.671875 -11.9375 Z M 1.765625 -9.796875 L 3.21875 -9.796875 L 3.21875 0 L 1.765625 0 Z M 1.765625 -9.796875 "/></g></g><g style="fill:#cb3689;fill-opacity:1;"><g transform="translate(250.99216, 133.476337)"><path style="stroke:none" d="M 1.765625 -13.828125 L 3.21875 -13.828125 L 3.21875 0 L 1.765625 0 Z M 1.765625 -13.828125 "/></g></g><g style="fill:#cb3689;fill-opacity:1;"><g transform="translate(258.667575, 133.476337)"><path style="stroke:none" d="M 5.90625 0.234375 C 5.238281 0.234375 4.609375 0.109375 4.015625 -0.140625 C 3.421875 -0.390625 2.898438 -0.738281 2.453125 -1.1875 C 2.015625 -1.632812 1.664062 -2.171875 1.40625 -2.796875 C 1.15625 -3.421875 1.03125 -4.113281 1.03125 -4.875 L 1.03125 -4.90625 C 1.03125 -5.613281 1.144531 -6.273438 1.375 -6.890625 C 1.601562 -7.515625 1.925781 -8.054688 2.34375 -8.515625 C 2.757812 -8.984375 3.253906 -9.347656 3.828125 -9.609375 C 4.410156 -9.867188 5.039062 -10 5.71875 -10 C 6.4375 -10 7.082031 -9.863281 7.65625 -9.59375 C 8.226562 -9.320312 8.707031 -8.953125 9.09375 -8.484375 C 9.488281 -8.023438 9.785156 -7.476562 9.984375 -6.84375 C 10.191406 -6.21875 10.296875 -5.546875 10.296875 -4.828125 C 10.296875 -4.734375 10.296875 -4.648438 10.296875 -4.578125 C 10.296875 -4.515625 10.285156 -4.441406 10.265625 -4.359375 L 2.5 -4.359375 C 2.550781 -3.828125 2.675781 -3.351562 2.875 -2.9375 C 3.082031 -2.53125 3.335938 -2.1875 3.640625 -1.90625 C 3.953125 -1.625 4.300781 -1.410156 4.6875 -1.265625 C 5.082031 -1.117188 5.503906 -1.046875 5.953125 -1.046875 C 6.628906 -1.046875 7.210938 -1.171875 7.703125 -1.421875 C 8.191406 -1.671875 8.640625 -2.003906 9.046875 -2.421875 L 9.953125 -1.609375 C 9.460938 -1.054688 8.898438 -0.609375 8.265625 -0.265625 C 7.628906 0.0664062 6.84375 0.234375 5.90625 0.234375 Z M 8.8125 -5.4375 C 8.769531 -5.882812 8.675781 -6.304688 8.53125 -6.703125 C 8.394531 -7.109375 8.195312 -7.460938 7.9375 -7.765625 C 7.675781 -8.066406 7.359375 -8.3125 6.984375 -8.5 C 6.609375 -8.6875 6.175781 -8.78125 5.6875 -8.78125 C 5.257812 -8.78125 4.859375 -8.691406 4.484375 -8.515625 C 4.117188 -8.347656 3.796875 -8.113281 3.515625 -7.8125 C 3.242188 -7.519531 3.019531 -7.171875 2.84375 -6.765625 C 2.664062 -6.359375 2.550781 -5.914062 2.5 -5.4375 Z M 8.8125 -5.4375 "/></g></g><g style="fill:#cb3689;fill-opacity:1;"><g transform="translate(272.578027, 133.476337)"><path style="stroke:none" d="M 1.625 -9.796875 L 3.09375 -9.796875 L 3.09375 -8.09375 C 3.414062 -8.625 3.84375 -9.070312 4.375 -9.4375 C 4.90625 -9.8125 5.59375 -10 6.4375 -10 C 7.03125 -10 7.554688 -9.90625 8.015625 -9.71875 C 8.484375 -9.53125 8.878906 -9.257812 9.203125 -8.90625 C 9.523438 -8.5625 9.769531 -8.148438 9.9375 -7.671875 C 10.113281 -7.191406 10.203125 -6.660156 10.203125 -6.078125 L 10.203125 0 L 8.734375 0 L 8.734375 -5.71875 C 8.734375 -6.632812 8.5 -7.359375 8.03125 -7.890625 C 7.5625 -8.421875 6.894531 -8.6875 6.03125 -8.6875 C 5.613281 -8.6875 5.222656 -8.613281 4.859375 -8.46875 C 4.503906 -8.320312 4.191406 -8.109375 3.921875 -7.828125 C 3.660156 -7.554688 3.457031 -7.234375 3.3125 -6.859375 C 3.164062 -6.484375 3.09375 -6.066406 3.09375 -5.609375 L 3.09375 0 L 1.625 0 Z M 1.625 -9.796875 "/></g></g><g style="fill:#cb3689;fill-opacity:1;"><g transform="translate(286.943326, 133.476337)"><path style="stroke:none" d="M 1.671875 -13.546875 L 3.328125 -13.546875 L 3.328125 -11.9375 L 1.671875 -11.9375 Z M 1.765625 -9.796875 L 3.21875 -9.796875 L 3.21875 0 L 1.765625 0 Z M 1.765625 -9.796875 "/></g></g><g style="fill:#cb3689;fill-opacity:1;"><g transform="translate(294.618741, 133.476337)"><path style="stroke:none" d="M 4.546875 0.203125 C 4.085938 0.203125 3.640625 0.140625 3.203125 0.015625 C 2.773438 -0.109375 2.382812 -0.300781 2.03125 -0.5625 C 1.6875 -0.820312 1.410156 -1.140625 1.203125 -1.515625 C 0.992188 -1.890625 0.890625 -2.332031 0.890625 -2.84375 L 0.890625 -2.875 C 0.890625 -3.394531 0.988281 -3.847656 1.1875 -4.234375 C 1.394531 -4.628906 1.679688 -4.957031 2.046875 -5.21875 C 2.421875 -5.488281 2.863281 -5.691406 3.375 -5.828125 C 3.894531 -5.972656 4.460938 -6.046875 5.078125 -6.046875 C 5.710938 -6.046875 6.257812 -6.003906 6.71875 -5.921875 C 7.1875 -5.847656 7.644531 -5.75 8.09375 -5.625 L 8.09375 -5.96875 C 8.09375 -6.851562 7.835938 -7.519531 7.328125 -7.96875 C 6.816406 -8.414062 6.097656 -8.640625 5.171875 -8.640625 C 4.585938 -8.640625 4.054688 -8.570312 3.578125 -8.4375 C 3.109375 -8.3125 2.648438 -8.140625 2.203125 -7.921875 L 1.765625 -9.109375 C 2.304688 -9.367188 2.851562 -9.570312 3.40625 -9.71875 C 3.96875 -9.863281 4.609375 -9.9375 5.328125 -9.9375 C 6.710938 -9.9375 7.765625 -9.570312 8.484375 -8.84375 C 9.160156 -8.175781 9.5 -7.222656 9.5 -5.984375 L 9.5 0 L 8.09375 0 L 8.09375 -1.484375 C 7.75 -1.035156 7.289062 -0.640625 6.71875 -0.296875 C 6.144531 0.0351562 5.421875 0.203125 4.546875 0.203125 Z M 4.828125 -0.953125 C 5.285156 -0.953125 5.710938 -1.015625 6.109375 -1.140625 C 6.503906 -1.273438 6.847656 -1.457031 7.140625 -1.6875 C 7.441406 -1.925781 7.675781 -2.207031 7.84375 -2.53125 C 8.019531 -2.851562 8.109375 -3.207031 8.109375 -3.59375 L 8.109375 -4.546875 C 7.742188 -4.648438 7.320312 -4.742188 6.84375 -4.828125 C 6.375 -4.921875 5.835938 -4.96875 5.234375 -4.96875 C 4.304688 -4.96875 3.597656 -4.78125 3.109375 -4.40625 C 2.617188 -4.039062 2.375 -3.550781 2.375 -2.9375 L 2.375 -2.90625 C 2.375 -2.59375 2.4375 -2.3125 2.5625 -2.0625 C 2.695312 -1.820312 2.878906 -1.617188 3.109375 -1.453125 C 3.335938 -1.296875 3.597656 -1.171875 3.890625 -1.078125 C 4.191406 -0.992188 4.503906 -0.953125 4.828125 -0.953125 Z M 4.828125 -0.953125 "/></g></g><g style="fill:#cb3689;fill-opacity:1;"><g transform="translate(308.282816, 133.476337)"><path style="stroke:none" d="M 1.765625 -13.828125 L 3.21875 -13.828125 L 3.21875 0 L 1.765625 0 Z M 1.765625 -13.828125 "/></g></g><g style="fill:#cb3689;fill-opacity:1;"><g transform="translate(315.958231, 133.476337)"><path style="stroke:none" d=""/></g></g><g style="fill:#cb3689;fill-opacity:1;"><g transform="translate(324.334846, 133.476337)"><path style="stroke:none" d="M 5.90625 0.234375 C 5.238281 0.234375 4.609375 0.109375 4.015625 -0.140625 C 3.421875 -0.390625 2.898438 -0.738281 2.453125 -1.1875 C 2.015625 -1.632812 1.664062 -2.171875 1.40625 -2.796875 C 1.15625 -3.421875 1.03125 -4.113281 1.03125 -4.875 L 1.03125 -4.90625 C 1.03125 -5.613281 1.144531 -6.273438 1.375 -6.890625 C 1.601562 -7.515625 1.925781 -8.054688 2.34375 -8.515625 C 2.757812 -8.984375 3.253906 -9.347656 3.828125 -9.609375 C 4.410156 -9.867188 5.039062 -10 5.71875 -10 C 6.4375 -10 7.082031 -9.863281 7.65625 -9.59375 C 8.226562 -9.320312 8.707031 -8.953125 9.09375 -8.484375 C 9.488281 -8.023438 9.785156 -7.476562 9.984375 -6.84375 C 10.191406 -6.21875 10.296875 -5.546875 10.296875 -4.828125 C 10.296875 -4.734375 10.296875 -4.648438 10.296875 -4.578125 C 10.296875 -4.515625 10.285156 -4.441406 10.265625 -4.359375 L 2.5 -4.359375 C 2.550781 -3.828125 2.675781 -3.351562 2.875 -2.9375 C 3.082031 -2.53125 3.335938 -2.1875 3.640625 -1.90625 C 3.953125 -1.625 4.300781 -1.410156 4.6875 -1.265625 C 5.082031 -1.117188 5.503906 -1.046875 5.953125 -1.046875 C 6.628906 -1.046875 7.210938 -1.171875 7.703125 -1.421875 C 8.191406 -1.671875 8.640625 -2.003906 9.046875 -2.421875 L 9.953125 -1.609375 C 9.460938 -1.054688 8.898438 -0.609375 8.265625 -0.265625 C 7.628906 0.0664062 6.84375 0.234375 5.90625 0.234375 Z M 8.8125 -5.4375 C 8.769531 -5.882812 8.675781 -6.304688 8.53125 -6.703125 C 8.394531 -7.109375 8.195312 -7.460938 7.9375 -7.765625 C 7.675781 -8.066406 7.359375 -8.3125 6.984375 -8.5 C 6.609375 -8.6875 6.175781 -8.78125 5.6875 -8.78125 C 5.257812 -8.78125 4.859375 -8.691406 4.484375 -8.515625 C 4.117188 -8.347656 3.796875 -8.113281 3.515625 -7.8125 C 3.242188 -7.519531 3.019531 -7.171875 2.84375 -6.765625 C 2.664062 -6.359375 2.550781 -5.914062 2.5 -5.4375 Z M 8.8125 -5.4375 "/></g></g><g style="fill:#cb3689;fill-opacity:1;"><g transform="translate(338.245298, 133.476337)"><path style="stroke:none" d="M 5.75 0.203125 C 5.15625 0.203125 4.578125 0.09375 4.015625 -0.125 C 3.460938 -0.351562 2.960938 -0.6875 2.515625 -1.125 C 2.078125 -1.5625 1.722656 -2.09375 1.453125 -2.71875 C 1.191406 -3.34375 1.0625 -4.0625 1.0625 -4.875 L 1.0625 -4.90625 C 1.0625 -5.707031 1.191406 -6.421875 1.453125 -7.046875 C 1.722656 -7.679688 2.078125 -8.21875 2.515625 -8.65625 C 2.960938 -9.09375 3.460938 -9.425781 4.015625 -9.65625 C 4.578125 -9.882812 5.15625 -10 5.75 -10 C 6.195312 -10 6.609375 -9.941406 6.984375 -9.828125 C 7.367188 -9.722656 7.710938 -9.570312 8.015625 -9.375 C 8.316406 -9.1875 8.59375 -8.96875 8.84375 -8.71875 C 9.09375 -8.46875 9.3125 -8.203125 9.5 -7.921875 L 9.5 -13.828125 L 10.953125 -13.828125 L 10.953125 0 L 9.5 0 L 9.5 -1.96875 C 9.289062 -1.675781 9.0625 -1.394531 8.8125 -1.125 C 8.570312 -0.863281 8.300781 -0.628906 8 -0.421875 C 7.695312 -0.222656 7.359375 -0.0703125 6.984375 0.03125 C 6.609375 0.144531 6.195312 0.203125 5.75 0.203125 Z M 6.015625 -1.09375 C 6.460938 -1.09375 6.894531 -1.1875 7.3125 -1.375 C 7.738281 -1.5625 8.117188 -1.820312 8.453125 -2.15625 C 8.796875 -2.488281 9.0625 -2.882812 9.25 -3.34375 C 9.445312 -3.800781 9.546875 -4.316406 9.546875 -4.890625 L 9.546875 -4.921875 C 9.546875 -5.492188 9.445312 -6.007812 9.25 -6.46875 C 9.0625 -6.9375 8.796875 -7.332031 8.453125 -7.65625 C 8.117188 -7.988281 7.738281 -8.242188 7.3125 -8.421875 C 6.894531 -8.609375 6.460938 -8.703125 6.015625 -8.703125 C 5.523438 -8.703125 5.070312 -8.613281 4.65625 -8.4375 C 4.238281 -8.269531 3.875 -8.023438 3.5625 -7.703125 C 3.257812 -7.378906 3.015625 -6.984375 2.828125 -6.515625 C 2.648438 -6.046875 2.5625 -5.515625 2.5625 -4.921875 L 2.5625 -4.890625 C 2.5625 -4.304688 2.648438 -3.78125 2.828125 -3.3125 C 3.015625 -2.84375 3.265625 -2.441406 3.578125 -2.109375 C 3.898438 -1.785156 4.269531 -1.535156 4.6875 -1.359375 C 5.101562 -1.179688 5.546875 -1.09375 6.015625 -1.09375 Z M 6.015625 -1.09375 "/></g></g><g style="fill:#cb3689;fill-opacity:1;"><g transform="translate(353.520267, 133.476337)"><path style="stroke:none" d="M 5.234375 0.203125 C 4.640625 0.203125 4.109375 0.109375 3.640625 -0.078125 C 3.179688 -0.265625 2.789062 -0.53125 2.46875 -0.875 C 2.144531 -1.226562 1.898438 -1.644531 1.734375 -2.125 C 1.566406 -2.601562 1.484375 -3.132812 1.484375 -3.71875 L 1.484375 -9.796875 L 2.9375 -9.796875 L 2.9375 -4.078125 C 2.9375 -3.160156 3.171875 -2.4375 3.640625 -1.90625 C 4.109375 -1.382812 4.773438 -1.125 5.640625 -1.125 C 6.066406 -1.125 6.457031 -1.191406 6.8125 -1.328125 C 7.175781 -1.472656 7.484375 -1.679688 7.734375 -1.953125 C 7.992188 -2.234375 8.195312 -2.5625 8.34375 -2.9375 C 8.5 -3.3125 8.578125 -3.726562 8.578125 -4.1875 L 8.578125 -9.796875 L 10.03125 -9.796875 L 10.03125 0 L 8.578125 0 L 8.578125 -1.703125 C 8.253906 -1.171875 7.828125 -0.71875 7.296875 -0.34375 C 6.765625 0.0195312 6.078125 0.203125 5.234375 0.203125 Z M 5.234375 0.203125 "/></g></g><g style="fill:#cb3689;fill-opacity:1;"><g transform="translate(367.885566, 133.476337)"><path style="stroke:none" d="M 6.046875 0.234375 C 5.328125 0.234375 4.660156 0.0976562 4.046875 -0.171875 C 3.429688 -0.453125 2.898438 -0.820312 2.453125 -1.28125 C 2.003906 -1.738281 1.65625 -2.273438 1.40625 -2.890625 C 1.15625 -3.515625 1.03125 -4.171875 1.03125 -4.859375 L 1.03125 -4.890625 C 1.03125 -5.585938 1.15625 -6.242188 1.40625 -6.859375 C 1.65625 -7.484375 2.003906 -8.023438 2.453125 -8.484375 C 2.898438 -8.953125 3.429688 -9.320312 4.046875 -9.59375 C 4.660156 -9.863281 5.328125 -10 6.046875 -10 C 6.515625 -10 6.9375 -9.953125 7.3125 -9.859375 C 7.695312 -9.773438 8.046875 -9.65625 8.359375 -9.5 C 8.671875 -9.34375 8.957031 -9.15625 9.21875 -8.9375 C 9.488281 -8.726562 9.738281 -8.503906 9.96875 -8.265625 L 9 -7.234375 C 8.613281 -7.640625 8.1875 -7.988281 7.71875 -8.28125 C 7.257812 -8.570312 6.695312 -8.71875 6.03125 -8.71875 C 5.53125 -8.71875 5.066406 -8.617188 4.640625 -8.421875 C 4.210938 -8.222656 3.835938 -7.953125 3.515625 -7.609375 C 3.203125 -7.273438 2.957031 -6.875 2.78125 -6.40625 C 2.601562 -5.945312 2.515625 -5.453125 2.515625 -4.921875 L 2.515625 -4.890625 C 2.515625 -4.359375 2.609375 -3.859375 2.796875 -3.390625 C 2.984375 -2.929688 3.234375 -2.53125 3.546875 -2.1875 C 3.867188 -1.84375 4.25 -1.570312 4.6875 -1.375 C 5.125 -1.175781 5.601562 -1.078125 6.125 -1.078125 C 6.75 -1.078125 7.304688 -1.21875 7.796875 -1.5 C 8.285156 -1.78125 8.722656 -2.128906 9.109375 -2.546875 L 10.046875 -1.671875 C 9.554688 -1.109375 8.992188 -0.648438 8.359375 -0.296875 C 7.734375 0.0546875 6.960938 0.234375 6.046875 0.234375 Z M 6.046875 0.234375 "/></g></g><g style="fill:#cb3689;fill-opacity:1;"><g transform="translate(381.398042, 133.476337)"><path style="stroke:none" d="M 4.546875 0.203125 C 4.085938 0.203125 3.640625 0.140625 3.203125 0.015625 C 2.773438 -0.109375 2.382812 -0.300781 2.03125 -0.5625 C 1.6875 -0.820312 1.410156 -1.140625 1.203125 -1.515625 C 0.992188 -1.890625 0.890625 -2.332031 0.890625 -2.84375 L 0.890625 -2.875 C 0.890625 -3.394531 0.988281 -3.847656 1.1875 -4.234375 C 1.394531 -4.628906 1.679688 -4.957031 2.046875 -5.21875 C 2.421875 -5.488281 2.863281 -5.691406 3.375 -5.828125 C 3.894531 -5.972656 4.460938 -6.046875 5.078125 -6.046875 C 5.710938 -6.046875 6.257812 -6.003906 6.71875 -5.921875 C 7.1875 -5.847656 7.644531 -5.75 8.09375 -5.625 L 8.09375 -5.96875 C 8.09375 -6.851562 7.835938 -7.519531 7.328125 -7.96875 C 6.816406 -8.414062 6.097656 -8.640625 5.171875 -8.640625 C 4.585938 -8.640625 4.054688 -8.570312 3.578125 -8.4375 C 3.109375 -8.3125 2.648438 -8.140625 2.203125 -7.921875 L 1.765625 -9.109375 C 2.304688 -9.367188 2.851562 -9.570312 3.40625 -9.71875 C 3.96875 -9.863281 4.609375 -9.9375 5.328125 -9.9375 C 6.710938 -9.9375 7.765625 -9.570312 8.484375 -8.84375 C 9.160156 -8.175781 9.5 -7.222656 9.5 -5.984375 L 9.5 0 L 8.09375 0 L 8.09375 -1.484375 C 7.75 -1.035156 7.289062 -0.640625 6.71875 -0.296875 C 6.144531 0.0351562 5.421875 0.203125 4.546875 0.203125 Z M 4.828125 -0.953125 C 5.285156 -0.953125 5.710938 -1.015625 6.109375 -1.140625 C 6.503906 -1.273438 6.847656 -1.457031 7.140625 -1.6875 C 7.441406 -1.925781 7.675781 -2.207031 7.84375 -2.53125 C 8.019531 -2.851562 8.109375 -3.207031 8.109375 -3.59375 L 8.109375 -4.546875 C 7.742188 -4.648438 7.320312 -4.742188 6.84375 -4.828125 C 6.375 -4.921875 5.835938 -4.96875 5.234375 -4.96875 C 4.304688 -4.96875 3.597656 -4.78125 3.109375 -4.40625 C 2.617188 -4.039062 2.375 -3.550781 2.375 -2.9375 L 2.375 -2.90625 C 2.375 -2.59375 2.4375 -2.3125 2.5625 -2.0625 C 2.695312 -1.820312 2.878906 -1.617188 3.109375 -1.453125 C 3.335938 -1.296875 3.597656 -1.171875 3.890625 -1.078125 C 4.191406 -0.992188 4.503906 -0.953125 4.828125 -0.953125 Z M 4.828125 -0.953125 "/></g></g><g style="fill:#cb3689;fill-opacity:1;"><g transform="translate(395.062117, 133.476337)"><path style="stroke:none" d="M 4.90625 0.171875 C 4.519531 0.171875 4.15625 0.117188 3.8125 0.015625 C 3.46875 -0.078125 3.171875 -0.234375 2.921875 -0.453125 C 2.679688 -0.679688 2.488281 -0.972656 2.34375 -1.328125 C 2.207031 -1.679688 2.140625 -2.101562 2.140625 -2.59375 L 2.140625 -8.515625 L 0.78125 -8.515625 L 0.78125 -9.796875 L 2.140625 -9.796875 L 2.140625 -12.75 L 3.59375 -12.75 L 3.59375 -9.796875 L 6.703125 -9.796875 L 6.703125 -8.515625 L 3.59375 -8.515625 L 3.59375 -2.78125 C 3.59375 -2.175781 3.742188 -1.753906 4.046875 -1.515625 C 4.359375 -1.273438 4.757812 -1.15625 5.25 -1.15625 C 5.5 -1.15625 5.734375 -1.179688 5.953125 -1.234375 C 6.179688 -1.285156 6.421875 -1.375 6.671875 -1.5 L 6.671875 -0.25 C 6.421875 -0.101562 6.148438 0 5.859375 0.0625 C 5.578125 0.132812 5.257812 0.171875 4.90625 0.171875 Z M 4.90625 0.171875 "/></g></g><g style="fill:#cb3689;fill-opacity:1;"><g transform="translate(405.409697, 133.476337)"><path style="stroke:none" d="M 1.671875 -13.546875 L 3.328125 -13.546875 L 3.328125 -11.9375 L 1.671875 -11.9375 Z M 1.765625 -9.796875 L 3.21875 -9.796875 L 3.21875 0 L 1.765625 0 Z M 1.765625 -9.796875 "/></g></g><g style="fill:#cb3689;fill-opacity:1;"><g transform="translate(413.085112, 133.476337)"><path style="stroke:none" d="M 6.109375 0.234375 C 5.367188 0.234375 4.6875 0.0976562 4.0625 -0.171875 C 3.445312 -0.453125 2.910156 -0.820312 2.453125 -1.28125 C 2.003906 -1.738281 1.65625 -2.273438 1.40625 -2.890625 C 1.15625 -3.503906 1.03125 -4.160156 1.03125 -4.859375 L 1.03125 -4.890625 C 1.03125 -5.585938 1.15625 -6.242188 1.40625 -6.859375 C 1.65625 -7.484375 2.003906 -8.023438 2.453125 -8.484375 C 2.910156 -8.953125 3.453125 -9.320312 4.078125 -9.59375 C 4.703125 -9.863281 5.390625 -10 6.140625 -10 C 6.867188 -10 7.546875 -9.863281 8.171875 -9.59375 C 8.796875 -9.320312 9.335938 -8.957031 9.796875 -8.5 C 10.253906 -8.039062 10.609375 -7.503906 10.859375 -6.890625 C 11.109375 -6.273438 11.234375 -5.617188 11.234375 -4.921875 L 11.234375 -4.890625 C 11.234375 -4.191406 11.101562 -3.53125 10.84375 -2.90625 C 10.59375 -2.289062 10.238281 -1.75 9.78125 -1.28125 C 9.320312 -0.820312 8.773438 -0.453125 8.140625 -0.171875 C 7.515625 0.0976562 6.835938 0.234375 6.109375 0.234375 Z M 6.140625 -1.078125 C 6.671875 -1.078125 7.15625 -1.175781 7.59375 -1.375 C 8.039062 -1.582031 8.421875 -1.851562 8.734375 -2.1875 C 9.054688 -2.53125 9.300781 -2.929688 9.46875 -3.390625 C 9.644531 -3.847656 9.734375 -4.335938 9.734375 -4.859375 L 9.734375 -4.890625 C 9.734375 -5.421875 9.640625 -5.914062 9.453125 -6.375 C 9.273438 -6.832031 9.019531 -7.234375 8.6875 -7.578125 C 8.363281 -7.929688 7.976562 -8.207031 7.53125 -8.40625 C 7.09375 -8.613281 6.617188 -8.71875 6.109375 -8.71875 C 5.578125 -8.71875 5.085938 -8.613281 4.640625 -8.40625 C 4.203125 -8.207031 3.828125 -7.9375 3.515625 -7.59375 C 3.203125 -7.257812 2.957031 -6.859375 2.78125 -6.390625 C 2.601562 -5.929688 2.515625 -5.441406 2.515625 -4.921875 L 2.515625 -4.890625 C 2.515625 -4.359375 2.609375 -3.859375 2.796875 -3.390625 C 2.984375 -2.929688 3.234375 -2.53125 3.546875 -2.1875 C 3.867188 -1.851562 4.25 -1.582031 4.6875 -1.375 C 5.132812 -1.175781 5.617188 -1.078125 6.140625 -1.078125 Z M 6.140625 -1.078125 "/></g></g><g style="fill:#cb3689;fill-opacity:1;"><g transform="translate(428.018952, 133.476337)"><path style="stroke:none" d="M 1.625 -9.796875 L 3.09375 -9.796875 L 3.09375 -8.09375 C 3.414062 -8.625 3.84375 -9.070312 4.375 -9.4375 C 4.90625 -9.8125 5.59375 -10 6.4375 -10 C 7.03125 -10 7.554688 -9.90625 8.015625 -9.71875 C 8.484375 -9.53125 8.878906 -9.257812 9.203125 -8.90625 C 9.523438 -8.5625 9.769531 -8.148438 9.9375 -7.671875 C 10.113281 -7.191406 10.203125 -6.660156 10.203125 -6.078125 L 10.203125 0 L 8.734375 0 L 8.734375 -5.71875 C 8.734375 -6.632812 8.5 -7.359375 8.03125 -7.890625 C 7.5625 -8.421875 6.894531 -8.6875 6.03125 -8.6875 C 5.613281 -8.6875 5.222656 -8.613281 4.859375 -8.46875 C 4.503906 -8.320312 4.191406 -8.109375 3.921875 -7.828125 C 3.660156 -7.554688 3.457031 -7.234375 3.3125 -6.859375 C 3.164062 -6.484375 3.09375 -6.066406 3.09375 -5.609375 L 3.09375 0 L 1.625 0 Z M 1.625 -9.796875 "/></g></g></g></svg>